<?xml version="1.0" encoding="utf-8"?>
<!-- Generator: Adobe Illustrator 14.0.0, SVG Export Plug-In . SVG Version: 6.00 Build 43363)  -->
<!DOCTYPE svg PUBLIC "-//W3C//DTD SVG 1.1//EN" "http://www.w3.org/Graphics/SVG/1.1/DTD/svg11.dtd">
<svg version="1.1" id="Layer_1" xmlns="http://www.w3.org/2000/svg" xmlns:xlink="http://www.w3.org/1999/xlink" x="0px" y="0px"
	 width="16.344px" height="16.346px" viewBox="0 0 16.344 16.346" enable-background="new 0 0 16.344 16.346" xml:space="preserve">
<path fill="#D65A4D" d="M2.393,2.394c-3.19,3.19-3.191,8.365,0,11.557c3.191,3.191,8.368,3.191,11.558,0.001
	c3.193-3.193,3.19-8.367-0.001-11.558S5.585-0.799,2.393,2.394z M11.763,7.345c0.458,0.001,0.828,0.372,0.828,0.828
	c0,0.229-0.093,0.435-0.242,0.584C12.199,8.907,11.993,9,11.764,9H8.999v2.765C9,11.993,8.906,12.2,8.757,12.349
	c-0.149,0.149-0.356,0.243-0.584,0.242c-0.457,0.001-0.828-0.369-0.828-0.828l0.001-2.764l-2.766,0C4.124,9,3.753,8.629,3.753,8.171
	c0-0.456,0.371-0.826,0.826-0.826h2.765V4.58c0.002-0.457,0.372-0.827,0.827-0.827C8.628,3.754,8.999,4.125,8.998,4.58l0,2.765
	L11.763,7.345z"/>
</svg>
