<?xml version="1.0" encoding="utf-8"?>
<!-- Generator: Adobe Illustrator 14.0.0, SVG Export Plug-In . SVG Version: 6.00 Build 43363)  -->
<!DOCTYPE svg PUBLIC "-//W3C//DTD SVG 1.1//EN" "http://www.w3.org/Graphics/SVG/1.1/DTD/svg11.dtd">
<svg version="1.1" id="Layer_1" xmlns="http://www.w3.org/2000/svg" xmlns:xlink="http://www.w3.org/1999/xlink" x="0px" y="0px"
	 width="16.344px" height="16.346px" viewBox="0 0 16.344 16.346" enable-background="new 0 0 16.344 16.346" xml:space="preserve">
<path fill="#D65A4D" d="M8.172,0C3.66,0,0,3.659,0,8.172c0,4.513,3.66,8.174,8.172,8.174c4.516,0,8.172-3.661,8.172-8.174
	C16.344,3.659,12.688,0,8.172,0z M11.297,10.126c0.322,0.325,0.322,0.849,0,1.171c-0.162,0.162-0.373,0.242-0.584,0.242
	c-0.213,0-0.424-0.08-0.586-0.242L8.172,9.342l-1.955,1.955c-0.16,0.162-0.373,0.242-0.584,0.242s-0.424-0.08-0.584-0.242
	c-0.324-0.322-0.324-0.846,0-1.171l1.955-1.954L5.049,6.217c-0.324-0.322-0.324-0.846,0-1.17c0.322-0.322,0.846-0.322,1.168,0
	l1.955,1.955l1.955-1.955c0.324-0.322,0.848-0.322,1.17,0c0.322,0.324,0.322,0.848,0,1.17L9.342,8.172L11.297,10.126z"/>
</svg>
