<?xml version="1.0" encoding="utf-8"?>
<!-- Generator: Adobe Illustrator 14.0.0, SVG Export Plug-In . SVG Version: 6.00 Build 43363)  -->
<!DOCTYPE svg PUBLIC "-//W3C//DTD SVG 1.1//EN" "http://www.w3.org/Graphics/SVG/1.1/DTD/svg11.dtd">
<svg version="1.1" id="Layer_1" xmlns="http://www.w3.org/2000/svg" xmlns:xlink="http://www.w3.org/1999/xlink" x="0px" y="0px"
	 width="74.8px" height="73.459px" viewBox="0 0 74.8 73.459" enable-background="new 0 0 74.8 73.459" xml:space="preserve">
<g>
	<g>
		<path fill="#D65A4D" d="M46.128,73.459H4.798c-2.481,0-4.5-2.019-4.5-4.5V13.292c0-2.481,2.019-4.5,4.5-4.5h41.33
			c2.481,0,4.5,2.019,4.5,4.5v55.667C50.628,71.441,48.61,73.459,46.128,73.459L46.128,73.459z M4.798,11.792
			c-0.827,0-1.5,0.673-1.5,1.5v55.667c0,0.827,0.673,1.5,1.5,1.5h41.33c0.827,0,1.5-0.673,1.5-1.5V13.292c0-0.827-0.673-1.5-1.5-1.5
			H4.798L4.798,11.792z"/>
		<line fill="#FFFFFF" x1="9.385" y1="34.847" x2="28.885" y2="34.847"/>
		<path fill="#D65A4D" d="M28.885,36.347h-19.5c-0.829,0-1.5-0.671-1.5-1.5s0.671-1.5,1.5-1.5h19.5c0.829,0,1.5,0.671,1.5,1.5
			S29.713,36.347,28.885,36.347L28.885,36.347z"/>
		<line fill="#FFFFFF" x1="9.385" y1="47.071" x2="28.885" y2="47.071"/>
		<path fill="#D65A4D" d="M28.885,48.571h-19.5c-0.829,0-1.5-0.671-1.5-1.5s0.671-1.5,1.5-1.5h19.5c0.829,0,1.5,0.671,1.5,1.5
			S29.713,48.571,28.885,48.571L28.885,48.571z"/>
		<line fill="#FFFFFF" x1="9.385" y1="59.292" x2="28.885" y2="59.292"/>
		<path fill="#D65A4D" d="M28.885,60.792h-19.5c-0.829,0-1.5-0.671-1.5-1.5s0.671-1.5,1.5-1.5h19.5c0.829,0,1.5,0.671,1.5,1.5
			S29.713,60.792,28.885,60.792L28.885,60.792z"/>
		<path fill="#D65A4D" d="M42.134,39.161h-6.625c-0.553,0-1-0.448-1-1v-6.625c0-0.553,0.447-1,1-1h6.625c0.553,0,1,0.447,1,1v6.625
			C43.134,38.712,42.688,39.161,42.134,39.161 M36.509,37.161h4.625v-4.625h-4.625V37.161z"/>
		<path fill="#D65A4D" d="M42.134,51.445h-6.625c-0.553,0-1-0.447-1-1V43.82c0-0.553,0.447-1,1-1h6.625c0.553,0,1,0.447,1,1v6.625
			C43.134,50.998,42.688,51.445,42.134,51.445 M36.509,49.445h4.625V44.82h-4.625V49.445z"/>
		<polygon fill="#FFFFFF" points="48.718,21.208 44.718,29.958 54.468,26.042 49.834,20.489 		"/>
		<path fill="#D65A4D" d="M42.134,63.73h-6.625c-0.553,0-1-0.448-1-1v-6.625c0-0.553,0.447-1,1-1h6.625c0.553,0,1,0.447,1,1v6.625
			C43.134,63.282,42.688,63.73,42.134,63.73 M36.509,61.73h4.625v-4.625h-4.625V61.73z"/>
		<path fill="#D65A4D" d="M38.72,36.932l-2.101-2.496c-0.355-0.422-0.301-1.053,0.121-1.409c0.422-0.355,1.053-0.301,1.409,0.121
			l0.775,0.92l4.794-4.28c0.413-0.368,1.044-0.332,1.412,0.08c0.368,0.412,0.332,1.044-0.08,1.412L38.72,36.932L38.72,36.932z"/>
		<polyline fill="#FFFFFF" points="51.145,23.005 48.228,20.229 52.603,16.229 65.312,3.895 70.479,9.728 54.468,26.187 		"/>
		<path fill="#D65A4D" d="M74.508,6.185l-5.892-5.892c-0.392-0.392-1.024-0.392-1.415,0L64.625,2.87l-0.707,0.707L47.006,20.488
			l0.252,0.252l-1.383,3.688l-0.167,0.444l-2.574,6.796l7.158-2.71l3.768-1.414l0.252,0.252l16.912-16.912l0.707-0.707L74.508,7.6
			C74.898,7.209,74.898,6.576,74.508,6.185 M64.625,5.698l4.477,4.479l-14.79,14.79l-4.477-4.479L64.625,5.698z M48.821,27.373
			l-1.394-1.393l1.384-3.687l3.697,3.696L48.821,27.373z"/>
	</g>
	<g>
		<path fill="#D65A4D" d="M13.734,24.061v0.967h-3.208v-4.902h1.107v3.936H13.734z"/>
		<path fill="#D65A4D" d="M19.146,22.976c0,1.295-0.847,2.101-2.199,2.101c-1.358,0-2.227-0.806-2.227-2.101v-2.851h1.106v2.851
			c0,0.707,0.462,1.134,1.121,1.134c0.659,0,1.093-0.427,1.093-1.134v-2.851h1.106V22.976z"/>
		<path fill="#D65A4D" d="M23.976,25.027l-2.375-3.145v3.145h-1.058v-4.902h1.009l2.381,3.151v-3.151h1.05v4.902H23.976z"/>
		<path fill="#D65A4D" d="M30.667,20.902l-0.644,0.784c-0.336-0.385-0.819-0.638-1.275-0.638c-0.84,0-1.492,0.651-1.492,1.506
			s0.651,1.513,1.492,1.513c0.441,0,0.925-0.224,1.275-0.574l0.651,0.708c-0.519,0.532-1.268,0.875-1.982,0.875
			c-1.463,0-2.57-1.085-2.57-2.507c0-1.415,1.128-2.479,2.612-2.479C29.442,20.09,30.185,20.405,30.667,20.902z"/>
		<path fill="#D65A4D" d="M35.077,25.027v-1.933h-2.22v1.933H31.75v-4.902h1.107v2.045h2.22v-2.045h1.106v4.902H35.077z"/>
		<path fill="#D65A4D" d="M37.161,21.658c0.021-0.974,0.603-1.54,1.555-1.54c0.896,0,1.471,0.427,1.471,1.204
			c0,1.079-1.086,1.184-1.086,2.052h-0.812c0-1.1,0.904-1.142,0.904-1.877c0-0.336-0.217-0.49-0.574-0.49
			c-0.385,0-0.603,0.218-0.624,0.658L37.161,21.658z M39.227,24.53c0,0.322-0.231,0.561-0.539,0.561c-0.315,0-0.54-0.238-0.54-0.561
			c0-0.329,0.225-0.554,0.54-0.554C38.996,23.977,39.227,24.201,39.227,24.53z"/>
	</g>
</g>
</svg>
