<?xml version="1.0" encoding="utf-8"?>
<!-- Generator: Adobe Illustrator 14.0.0, SVG Export Plug-In . SVG Version: 6.00 Build 43363)  -->
<!DOCTYPE svg PUBLIC "-//W3C//DTD SVG 1.1//EN" "http://www.w3.org/Graphics/SVG/1.1/DTD/svg11.dtd">
<svg version="1.1" id="Layer_1" xmlns="http://www.w3.org/2000/svg" xmlns:xlink="http://www.w3.org/1999/xlink" x="0px" y="0px"
	 width="77.76px" height="77.05px" viewBox="0 0 77.76 77.05" enable-background="new 0 0 77.76 77.05" xml:space="preserve">
<g>
	<path fill="#FFFFFF" d="M76.396,49.646c0,8.142-6.601,14.742-14.742,14.742c-8.142,0-14.743-6.601-14.743-14.742
		c0-8.143,6.601-14.743,14.743-14.743C69.795,34.903,76.396,41.504,76.396,49.646"/>
	<path fill="#D65A4D" d="M61.654,65.754c-8.883,0-16.107-7.227-16.107-16.107s7.224-16.107,16.107-16.107
		c8.882,0,16.106,7.227,16.106,16.107S70.536,65.754,61.654,65.754 M61.654,36.269c-7.377,0-13.378,6.001-13.378,13.378
		s6.001,13.378,13.378,13.378s13.378-6.001,13.378-13.378S69.031,36.269,61.654,36.269"/>
	<path fill="#D65A4D" d="M61.58,57.05c-2.181,0-3.957-1.775-3.957-3.956c0-0.502,0.407-0.91,0.91-0.91
		c0.504,0,0.909,0.408,0.909,0.91c0,1.178,0.958,2.137,2.138,2.137c1.179,0,2.139-0.959,2.139-2.137c0-0.502,0.405-0.91,0.908-0.91
		s0.909,0.408,0.909,0.91C65.536,55.274,63.76,57.05,61.58,57.05"/>
	<path fill="#D65A4D" d="M57.268,46.437c0-0.876-0.71-1.586-1.587-1.586c-0.875,0-1.585,0.71-1.585,1.586
		c0,0.877,0.71,1.586,1.585,1.586C56.558,48.022,57.268,47.313,57.268,46.437"/>
	<path fill="#D65A4D" d="M69.064,46.437c0-0.876-0.711-1.586-1.586-1.586c-0.876,0-1.587,0.71-1.587,1.586
		c0,0.877,0.711,1.586,1.587,1.586C68.353,48.022,69.064,47.313,69.064,46.437"/>
	<path fill="#FFFFFF" d="M30.849,49.646c0,8.142-6.601,14.742-14.743,14.742c-8.142,0-14.742-6.601-14.742-14.742
		c0-8.143,6.6-14.743,14.742-14.743C24.248,34.903,30.849,41.504,30.849,49.646"/>
	<path fill="#D65A4D" d="M16.106,65.754C7.225,65.754,0,58.527,0,49.646s7.225-16.107,16.106-16.107
		c8.883,0,16.107,7.227,16.107,16.107S24.989,65.754,16.106,65.754 M16.106,36.269c-7.378,0-13.378,6.001-13.378,13.378
		s6,13.378,13.378,13.378c7.377,0,13.378-6.001,13.378-13.378S23.483,36.269,16.106,36.269"/>
	<path fill="#D65A4D" d="M16.032,57.05c-2.182,0-3.956-1.775-3.956-3.956c0-0.502,0.407-0.91,0.911-0.91
		c0.501,0,0.908,0.408,0.908,0.91c0,1.178,0.958,2.137,2.137,2.137c1.179,0,2.138-0.959,2.138-2.137c0-0.502,0.407-0.91,0.91-0.91
		c0.502,0,0.908,0.408,0.908,0.91C19.988,55.274,18.214,57.05,16.032,57.05"/>
	<path fill="#D65A4D" d="M11.72,46.437c0-0.876-0.71-1.586-1.587-1.586c-0.875,0-1.585,0.71-1.585,1.586
		c0,0.877,0.71,1.586,1.585,1.586C11.01,48.022,11.72,47.313,11.72,46.437"/>
	<path fill="#D65A4D" d="M23.517,46.437c0-0.876-0.711-1.586-1.586-1.586c-0.876,0-1.587,0.71-1.587,1.586
		c0,0.877,0.711,1.586,1.587,1.586C22.806,48.022,23.517,47.313,23.517,46.437"/>
	<path fill="#FFFFFF" d="M53.15,60.942c0,8.143-6.601,14.742-14.743,14.742c-8.143,0-14.742-6.6-14.742-14.742
		S30.264,46.2,38.407,46.2C46.549,46.2,53.15,52.8,53.15,60.942"/>
	<path fill="#D65A4D" d="M38.407,77.05c-8.882,0-16.106-7.227-16.106-16.107s7.224-16.106,16.106-16.106s16.106,7.226,16.106,16.106
		S47.289,77.05,38.407,77.05 M38.407,47.564c-7.376,0-13.379,6.001-13.379,13.378S31.031,74.32,38.407,74.32
		s13.378-6.001,13.378-13.378S45.783,47.564,38.407,47.564"/>
	<path fill="#D65A4D" d="M38.333,68.346c-2.182,0-3.956-1.775-3.956-3.957c0-0.502,0.406-0.909,0.909-0.909
		c0.503,0,0.908,0.407,0.908,0.909c0,1.179,0.96,2.137,2.139,2.137c1.179,0,2.137-0.958,2.137-2.137
		c0-0.502,0.406-0.909,0.909-0.909c0.504,0,0.909,0.407,0.909,0.909C42.289,66.57,40.514,68.346,38.333,68.346"/>
	<path fill="#D65A4D" d="M34.022,57.732c0-0.876-0.711-1.586-1.587-1.586c-0.875,0-1.586,0.71-1.586,1.586s0.711,1.586,1.586,1.586
		C33.311,59.318,34.022,58.608,34.022,57.732"/>
	<path fill="#D65A4D" d="M45.817,57.732c0-0.876-0.71-1.586-1.585-1.586c-0.877,0-1.587,0.71-1.587,1.586s0.71,1.586,1.587,1.586
		C45.107,59.318,45.817,58.608,45.817,57.732"/>
	<path fill="#D65A4D" d="M54.78,15.271C54.78,6.837,47.943,0,39.509,0c-8.435,0-15.271,6.837-15.271,15.271
		c0,6.635,4.235,12.264,10.146,14.371l5.125,8.879l5.126-8.879C50.544,27.533,54.78,21.905,54.78,15.271"/>
	<path fill="#FFFFFF" d="M30.156,16.435h9.639c0.118,0,0.229-0.055,0.301-0.148c0.073-0.094,0.097-0.216,0.067-0.329
		c-0.624-2.351-2.757-3.991-5.188-3.991c-2.429,0-4.562,1.641-5.186,3.991c-0.03,0.113-0.006,0.235,0.065,0.329
		C29.927,16.38,30.038,16.435,30.156,16.435"/>
	<path fill="#FFFFFF" d="M40.824,17.06c-0.438,0-0.666,0.088-0.898,0.195c-0.138,0.063-0.238,0.108-0.558,0.108
		c-0.121,0-0.303-0.056-0.495-0.115c-0.284-0.089-0.606-0.188-0.965-0.188c-0.327,0-0.63,0.095-0.899,0.178
		c-0.462,0.145-0.773,0.118-1.184-0.01c-0.266-0.083-0.538-0.168-0.834-0.168c-0.526,0-0.789,0.101-1.034,0.214
		c-0.131,0.061-0.197,0.09-0.422,0.09c-0.248,0-0.346-0.04-0.507-0.107c-0.209-0.087-0.47-0.196-0.948-0.196
		c-0.479,0-0.739,0.109-0.947,0.197c-0.161,0.066-0.257,0.106-0.505,0.106c-0.249,0-0.347-0.04-0.507-0.107
		c-0.21-0.087-0.471-0.196-0.948-0.196c-0.316,0-0.572,0.255-0.572,0.57c0,0.314,0.256,0.57,0.572,0.57
		c0.249,0,0.346,0.041,0.507,0.108c0.209,0.088,0.469,0.197,0.948,0.197c0.476,0,0.737-0.11,0.946-0.197
		c0.16-0.067,0.257-0.108,0.506-0.108s0.347,0.041,0.509,0.108c0.208,0.088,0.467,0.197,0.946,0.197
		c0.438,0,0.667-0.089,0.899-0.196c0.137-0.063,0.237-0.109,0.557-0.109c0.122,0,0.303,0.058,0.493,0.116
		c0.284,0.088,0.606,0.189,0.965,0.189c0.327,0,0.63-0.096,0.899-0.179c0.463-0.145,0.774-0.118,1.187,0.011
		c0.265,0.083,0.539,0.168,0.833,0.168c0.526,0,0.79-0.102,1.035-0.214c0.131-0.061,0.196-0.092,0.421-0.092
		c0.315,0,0.57-0.256,0.57-0.57C41.394,17.314,41.139,17.06,40.824,17.06"/>
	<path fill="#FFFFFF" d="M39.407,19.266h-8.861c-0.442,0-0.8,0.394-0.8,0.88c0,0.484,0.358,0.879,0.8,0.879h8.861
		c0.44,0,0.799-0.395,0.799-0.879C40.206,19.659,39.847,19.266,39.407,19.266"/>
	<path fill="#FFFFFF" d="M49.096,11.322h-3.178V8.375c0-0.21-0.17-0.38-0.38-0.38c-0.211,0-0.38,0.17-0.38,0.38v2.947h-3.383
		c-0.211,0-0.381,0.171-0.381,0.381s0.17,0.381,0.381,0.381h0.452c-0.003,0.024-0.01,0.049-0.007,0.074l1.011,8.53
		c0.022,0.191,0.185,0.335,0.378,0.335h3.857c0.192,0,0.356-0.144,0.378-0.335l1.012-8.53c0.003-0.025-0.004-0.05-0.007-0.074h0.247
		c0.211,0,0.381-0.171,0.381-0.381S49.307,11.322,49.096,11.322"/>
</g>
</svg>
