<?xml version="1.0" encoding="utf-8"?>
<!-- Generator: Adobe Illustrator 14.0.0, SVG Export Plug-In . SVG Version: 6.00 Build 43363)  -->
<!DOCTYPE svg PUBLIC "-//W3C//DTD SVG 1.1//EN" "http://www.w3.org/Graphics/SVG/1.1/DTD/svg11.dtd">
<svg version="1.1" id="Layer_1" xmlns="http://www.w3.org/2000/svg" xmlns:xlink="http://www.w3.org/1999/xlink" x="0px" y="0px"
	 width="98.497px" height="81.642px" viewBox="0 0 98.497 81.642" enable-background="new 0 0 98.497 81.642" xml:space="preserve">
<g>
	<path fill="#D65A4D" d="M70.181,73.82h-41.33c-2.481,0-4.5-2.019-4.5-4.5V13.653c0-2.481,2.019-4.5,4.5-4.5h41.33
		c2.481,0,4.5,2.019,4.5,4.5V69.32C74.681,71.802,72.662,73.82,70.181,73.82L70.181,73.82z M28.851,12.153
		c-0.827,0-1.5,0.673-1.5,1.5V69.32c0,0.827,0.673,1.5,1.5,1.5h41.33c0.827,0,1.5-0.673,1.5-1.5V13.653c0-0.827-0.673-1.5-1.5-1.5
		H28.851L28.851,12.153z"/>
</g>
<text transform="matrix(1 0 0 1 34.3154 25.3477)"><tspan x="0" y="0" fill="#D65A4D" font-family="'Montserrat-SemiBold'" font-size="7">L</tspan><tspan x="4.284" y="0" fill="#D65A4D" font-family="'Montserrat-SemiBold'" font-size="7">UN</tspan><tspan x="15.946" y="0" fill="#D65A4D" font-family="'Montserrat-SemiBold'" font-size="7">CH</tspan><tspan x="27.153" y="0" fill="#D65A4D" font-family="'Montserrat-SemiBold'" font-size="7">?</tspan></text>
<text transform="matrix(1 0 0 1 34.3086 38.8506)"><tspan x="0" y="0" fill="#D65A4D" font-family="'Montserrat-SemiBold'" font-size="7">1</tspan><tspan x="3.108" y="0" fill="#D65A4D" font-family="'Montserrat-SemiBold'" font-size="7">.</tspan></text>
<text transform="matrix(1 0 0 1 33.6362 51.2471)"><tspan x="0" y="0" fill="#D65A4D" font-family="'Montserrat-SemiBold'" font-size="7">2</tspan><tspan x="4.445" y="0" fill="#D65A4D" font-family="'Montserrat-SemiBold'" font-size="7">.</tspan></text>
<text transform="matrix(1 0 0 1 33.7905 63.6445)"><tspan x="0" y="0" fill="#D65A4D" font-family="'Montserrat-SemiBold'" font-size="7">3</tspan><tspan x="4.144" y="0" fill="#D65A4D" font-family="'Montserrat-SemiBold'" font-size="7">.</tspan></text>
<line fill="#D65A4D" x1="45.188" y1="35.819" x2="65.188" y2="35.819"/>
<path fill="#D65A4D" d="M65.188,37.319h-20c-0.829,0-1.5-0.671-1.5-1.5s0.671-1.5,1.5-1.5h20c0.829,0,1.5,0.671,1.5,1.5
	S66.016,37.319,65.188,37.319L65.188,37.319z"/>
<line fill="#D65A4D" x1="45.188" y1="48.653" x2="65.188" y2="48.653"/>
<path fill="#D65A4D" d="M65.188,50.153h-20c-0.829,0-1.5-0.671-1.5-1.5s0.671-1.5,1.5-1.5h20c0.829,0,1.5,0.671,1.5,1.5
	S66.016,50.153,65.188,50.153L65.188,50.153z"/>
<line fill="#D65A4D" x1="45.188" y1="61.486" x2="65.188" y2="61.486"/>
<path fill="#D65A4D" d="M65.188,62.986h-20c-0.829,0-1.5-0.671-1.5-1.5s0.671-1.5,1.5-1.5h20c0.829,0,1.5,0.671,1.5,1.5
	S66.016,62.986,65.188,62.986L65.188,62.986z"/>
<path fill="#FFFFFF" d="M29.983,41.488c0,7.914-6.416,14.329-14.33,14.329S1.325,49.402,1.325,41.488s6.414-14.33,14.328-14.33
	S29.983,33.574,29.983,41.488"/>
<path fill="#D65A4D" d="M15.654,57.143C7.022,57.143,0,50.12,0,41.488s7.022-15.655,15.654-15.655s15.655,7.023,15.655,15.655
	S24.286,57.143,15.654,57.143 M15.654,28.485c-7.169,0-13.003,5.833-13.003,13.003c0,7.169,5.834,13.002,13.003,13.002
	s13.003-5.833,13.003-13.002C28.657,34.318,22.823,28.485,15.654,28.485"/>
<path fill="#D65A4D" d="M15.583,48.683c-2.121,0-3.845-1.726-3.845-3.846c0-0.488,0.395-0.883,0.884-0.883
	c0.488,0,0.882,0.395,0.882,0.883c0,1.146,0.933,2.076,2.079,2.076s2.077-0.93,2.077-2.076c0-0.488,0.394-0.883,0.883-0.883
	c0.49,0,0.884,0.395,0.884,0.883C19.427,46.957,17.703,48.683,15.583,48.683"/>
<path fill="#D65A4D" d="M11.392,38.367c0-0.852-0.691-1.542-1.542-1.542s-1.541,0.69-1.541,1.542c0,0.854,0.69,1.541,1.541,1.541
	S11.392,39.221,11.392,38.367"/>
<path fill="#D65A4D" d="M22.856,38.367c0-0.852-0.69-1.542-1.54-1.542c-0.853,0-1.543,0.69-1.543,1.542
	c0,0.854,0.69,1.541,1.543,1.541C22.166,39.908,22.856,39.221,22.856,38.367"/>
<path fill="#FFFFFF" d="M91.291,65.987c0,7.914-6.416,14.329-14.331,14.329c-7.914,0-14.328-6.415-14.328-14.329
	s6.414-14.33,14.328-14.33C84.875,51.657,91.291,58.073,91.291,65.987"/>
<path fill="#D65A4D" d="M76.961,81.642c-8.632,0-15.654-7.022-15.654-15.654s7.022-15.655,15.654-15.655s15.655,7.023,15.655,15.655
	S85.593,81.642,76.961,81.642 M76.961,52.984c-7.169,0-13.003,5.833-13.003,13.003c0,7.169,5.834,13.002,13.003,13.002
	s13.003-5.833,13.003-13.002C89.964,58.817,84.13,52.984,76.961,52.984"/>
<path fill="#D65A4D" d="M76.89,73.183c-2.121,0-3.845-1.727-3.845-3.847c0-0.487,0.395-0.883,0.884-0.883
	c0.488,0,0.882,0.396,0.882,0.883c0,1.146,0.933,2.076,2.079,2.076s2.077-0.93,2.077-2.076c0-0.487,0.394-0.883,0.883-0.883
	c0.49,0,0.884,0.396,0.884,0.883C80.734,71.456,79.01,73.183,76.89,73.183"/>
<path fill="#D65A4D" d="M72.699,62.866c0-0.852-0.691-1.542-1.542-1.542s-1.541,0.69-1.541,1.542c0,0.854,0.69,1.541,1.541,1.541
	S72.699,63.72,72.699,62.866"/>
<path fill="#D65A4D" d="M84.163,62.866c0-0.852-0.69-1.542-1.54-1.542c-0.853,0-1.543,0.69-1.543,1.542
	c0,0.854,0.69,1.541,1.543,1.541C83.473,64.407,84.163,63.72,84.163,62.866"/>
<path fill="#FFFFFF" d="M97.171,15.655c0,7.914-6.416,14.329-14.33,14.329s-14.328-6.415-14.328-14.329s6.414-14.33,14.328-14.33
	S97.171,7.741,97.171,15.655"/>
<path fill="#D65A4D" d="M82.842,31.31c-8.632,0-15.654-7.022-15.654-15.654S74.21,0,82.842,0s15.655,7.023,15.655,15.655
	S91.474,31.31,82.842,31.31 M82.842,2.652c-7.169,0-13.003,5.833-13.003,13.003c0,7.169,5.834,13.002,13.003,13.002
	s13.003-5.833,13.003-13.002C95.845,8.485,90.011,2.652,82.842,2.652"/>
<path fill="#D65A4D" d="M82.771,22.85c-2.121,0-3.845-1.726-3.845-3.846c0-0.488,0.395-0.883,0.884-0.883
	c0.488,0,0.882,0.395,0.882,0.883c0,1.146,0.933,2.076,2.079,2.076s2.077-0.93,2.077-2.076c0-0.488,0.394-0.883,0.883-0.883
	c0.49,0,0.884,0.395,0.884,0.883C86.615,21.124,84.891,22.85,82.771,22.85"/>
<path fill="#D65A4D" d="M78.58,12.535c0-0.853-0.691-1.543-1.542-1.543s-1.541,0.69-1.541,1.543s0.69,1.541,1.541,1.541
	S78.58,13.388,78.58,12.535"/>
<path fill="#D65A4D" d="M90.044,12.535c0-0.853-0.69-1.543-1.54-1.543c-0.853,0-1.543,0.69-1.543,1.543s0.69,1.541,1.543,1.541
	C89.354,14.076,90.044,13.388,90.044,12.535"/>
</svg>
