<?xml version="1.0" encoding="utf-8"?>
<!-- Generator: Adobe Illustrator 14.0.0, SVG Export Plug-In . SVG Version: 6.00 Build 43363)  -->
<!DOCTYPE svg PUBLIC "-//W3C//DTD SVG 1.1//EN" "http://www.w3.org/Graphics/SVG/1.1/DTD/svg11.dtd">
<svg version="1.1" id="Layer_1" xmlns="http://www.w3.org/2000/svg" xmlns:xlink="http://www.w3.org/1999/xlink" x="0px" y="0px"
	 width="141.325px" height="45.827px" viewBox="0 0 141.325 45.827" enable-background="new 0 0 141.325 45.827"
	 xml:space="preserve">
<g>
	<g>
		<path fill="#595959" d="M53.316,36.676V13.524h1.543l10.034,11.422L74.94,13.524h1.545v23.152h-4.631l-0.016-13.428l-6.946,7.719
			l-6.945-7.719v13.428H53.316z"/>
		<path fill="#595959" d="M90.315,31.334V21.242h4.322v14.2c0,2.162-0.668,3.967-2.008,5.42c-1.336,1.45-2.93,2.217-4.783,2.298
			l-0.926,0.093c-2.162-0.061-4.117-0.914-5.865-2.562l2.006-2.315c1.234,0.928,2.402,1.441,3.504,1.543
			c1.338,0,2.299-0.334,2.881-1.004c0.582-0.669,0.869-1.619,0.869-2.854v-0.789c-1.09,0.938-2.35,1.404-3.781,1.404
			c-1.955,0-3.447-0.59-4.477-1.773c-1.029-1.186-1.543-2.549-1.543-4.091v-9.57h4.322v8.489c0,1.029,0.256,1.826,0.77,2.395
			c0.518,0.564,1.293,0.863,2.332,0.893C88.845,32.956,89.638,32.397,90.315,31.334z"/>
		<path fill="#595959" d="M102.14,22.937c1.104-1.13,2.443-1.695,4.029-1.695c0.504,0,0.982,0.042,1.436,0.124l-0.68,4.26
			c-0.502-0.453-1.225-0.695-2.16-0.725c-1.051,0.07-1.926,0.832-2.625,2.283v9.492h-4.32V21.688l4.32-0.464V22.937z"/>
		<path fill="#595959" d="M123.929,21.704v13.738c0,2.162-0.645,3.967-1.93,5.42c-1.287,1.45-2.908,2.217-4.863,2.298l-0.926,0.093
			c-2.982-0.061-5.299-0.914-6.945-2.562l2.006-2.315c1.133,0.824,2.506,1.285,4.121,1.389c1.646,0,2.76-0.386,3.342-1.156
			c0.582-0.773,0.873-1.621,0.873-2.547v-0.773c-1.154,0.927-2.49,1.389-4.014,1.389c-2.365,0-4.141-0.693-5.326-2.082
			c-1.184-1.39-1.773-3.268-1.773-5.635c0-2.266,0.643-4.115,1.93-5.557c1.287-1.442,3.111-2.161,5.477-2.161
			c1.752,0.102,2.986,0.57,3.707,1.404v-1.404L123.929,21.704z M119.606,30.348v-2.5c-0.205-1.73-1.287-2.744-3.242-3.04
			c-2.572,0.093-3.961,1.372-4.166,3.843c0.102,2.881,1.49,4.373,4.166,4.477C118.319,32.819,119.401,31.892,119.606,30.348z"/>
		<path fill="#595959" d="M126.198,28.959c0-2.266,0.719-4.115,2.16-5.557c1.441-1.442,3.293-2.161,5.557-2.161
			s4.064,0.719,5.402,2.161c1.34,1.441,2.008,3.291,2.008,5.557v1.543h-10.652c0.104,0.824,0.463,1.467,1.08,1.93
			c0.619,0.463,1.34,0.695,2.162,0.695c1.441,0,2.727-0.412,3.859-1.235l2.471,2.47c-1.131,1.545-3.242,2.314-6.33,2.314
			c-2.264,0-4.115-0.72-5.557-2.16C126.917,33.077,126.198,31.223,126.198,28.959z M136.075,25.487
			c-0.617-0.463-1.336-0.695-2.16-0.695c-0.822,0-1.543,0.232-2.162,0.695c-0.617,0.463-0.924,1.105-0.924,1.93h6.174
			C137.003,26.592,136.694,25.95,136.075,25.487z"/>
	</g>
	<g>
		<path fill="#D65A4D" d="M5.674,12.741c-7.566,7.57-7.566,19.841,0,27.41c7.57,7.568,19.842,7.568,27.41,0
			c7.569-7.569,7.569-19.84,0-27.41L19.38,26.446L5.674,12.741z"/>
		<path fill="#D65A4D" d="M5.674,5.676L19.38,19.381L33.084,5.676C25.516-1.892,13.245-1.892,5.674,5.676z"/>
	</g>
</g>
</svg>
