<?xml version="1.0" encoding="utf-8"?>
<!-- Generator: Adobe Illustrator 14.0.0, SVG Export Plug-In . SVG Version: 6.00 Build 43363)  -->
<!DOCTYPE svg PUBLIC "-//W3C//DTD SVG 1.1//EN" "http://www.w3.org/Graphics/SVG/1.1/DTD/svg11.dtd">
<svg version="1.1" id="Layer_1" xmlns="http://www.w3.org/2000/svg" xmlns:xlink="http://www.w3.org/1999/xlink" x="0px" y="0px"
	 width="16.344px" height="16.346px" viewBox="0 0 16.344 16.346" enable-background="new 0 0 16.344 16.346" xml:space="preserve">
<path fill="#D65A4D" d="M16.172,8.173c0-4.398-3.602-8-8-8s-8,3.602-8,8s3.602,8,8,8c1.689,0,3.258-0.535,4.553-1.438
	c2.068-1.299,3.447-3.596,3.447-6.219c0-0.059-0.008-0.115-0.008-0.172C16.164,8.286,16.172,8.229,16.172,8.173z M8.051,12.784
	c-0.539,0-0.924-0.408-0.924-0.959c0-0.564,0.385-0.947,0.924-0.947c0.529,0,0.924,0.383,0.924,0.947
	C8.975,12.376,8.58,12.784,8.051,12.784z M8.76,9.847H7.367c0-1.885,1.547-1.955,1.547-3.215c0-0.576-0.371-0.84-0.982-0.84
	c-0.66,0-1.031,0.371-1.068,1.127L5.438,6.907C5.473,5.241,6.469,4.269,8.1,4.269c1.535,0,2.518,0.732,2.518,2.062
	C10.617,8.179,8.76,8.358,8.76,9.847z"/>
</svg>
